<svg width="251" height="419" viewBox="0 0 251 419" fill="none" xmlns="http://www.w3.org/2000/svg">
<g clip-path="url(#clip0_384_2893)">
<rect y="32.1624" width="185.216" height="392.221" rx="11.349" transform="rotate(-10 0 32.1624)" fill="black"/>
<g clip-path="url(#clip1_384_2893)">
<rect x="3.60254" y="34.293" width="178.406" height="386.774" rx="11.349" transform="rotate(-10 3.60254 34.293)" fill="white"/>
<g clip-path="url(#clip2_384_2893)">
<rect opacity="0.35" x="162.228" y="15.5636" width="7.50814" height="3.69448" rx="0.774649" transform="rotate(-10 162.228 15.5636)" stroke="#121208" stroke-opacity="0.6" stroke-width="0.35753"/>
<path opacity="0.4" d="M170.347 15.2822L170.596 16.6906C170.858 16.5214 170.993 16.2114 170.939 15.904C170.885 15.5965 170.652 15.3515 170.347 15.2822Z" fill="#121208" fill-opacity="0.6"/>
<rect x="162.85" y="15.999" width="6.43555" height="2.62189" rx="0.476707" transform="rotate(-10 162.85 15.999)" fill="#0B0B0B"/>
<path d="M157.304 19.3074C157.687 18.8472 158.347 18.7308 158.865 19.032C158.892 19.0485 158.91 19.0759 158.916 19.1064C158.922 19.1366 158.916 19.1678 158.898 19.1929L158.317 20.0302C158.299 20.0545 158.274 20.0715 158.244 20.0766C158.215 20.0818 158.185 20.0747 158.161 20.0577L157.328 19.4697C157.303 19.4522 157.286 19.425 157.281 19.3946C157.277 19.364 157.284 19.3319 157.304 19.3074ZM156.194 18.5244C157.006 17.4502 158.511 17.1848 159.641 17.9164C159.667 17.9338 159.685 17.9608 159.69 17.9911C159.696 18.0213 159.689 18.0524 159.672 18.0777L159.336 18.5623C159.301 18.6116 159.234 18.6244 159.183 18.5912C158.813 18.3588 158.37 18.2725 157.94 18.3484C157.51 18.4244 157.123 18.6571 156.855 19.0018C156.819 19.0502 156.751 19.0613 156.702 19.0268L156.221 18.6861C156.196 18.6684 156.178 18.6417 156.173 18.6113C156.168 18.5808 156.176 18.5494 156.194 18.5244ZM155.084 17.7433C156.323 16.0538 158.673 15.6394 160.415 16.8033C160.44 16.8206 160.458 16.847 160.464 16.877C160.469 16.9072 160.462 16.9385 160.444 16.9637L160.109 17.4482C160.075 17.4979 160.006 17.5104 159.956 17.4763C159.293 17.0372 158.487 16.8697 157.703 17.0078C156.92 17.1459 156.22 17.5791 155.747 18.2184C155.712 18.2676 155.643 18.2795 155.593 18.2446L155.112 17.904C155.087 17.8863 155.07 17.8591 155.065 17.829C155.06 17.799 155.067 17.7681 155.084 17.7433Z" fill="#0B0B0B"/>
<path d="M148.254 20.3869C148.449 20.3526 148.634 20.4824 148.668 20.6768L148.792 21.3808C148.827 21.5753 148.697 21.7606 148.502 21.7949L148.15 21.8569C147.956 21.8912 147.771 21.7614 147.736 21.567L147.612 20.863C147.578 20.6686 147.708 20.4833 147.902 20.449L148.254 20.3869ZM149.773 19.3933C149.967 19.359 150.153 19.4886 150.188 19.683L150.436 21.091C150.47 21.2855 150.34 21.4709 150.145 21.5052L149.793 21.5673C149.599 21.6014 149.413 21.4717 149.379 21.2774L149.131 19.8694C149.096 19.6751 149.226 19.4898 149.421 19.4553L149.773 19.3933ZM151.271 18.2812C151.466 18.2469 151.652 18.3766 151.686 18.5709L152.08 20.8012C152.114 20.9956 151.983 21.1811 151.789 21.2154L151.437 21.2775C151.242 21.3116 151.057 21.1819 151.023 20.9876L150.629 18.7573C150.595 18.563 150.725 18.3777 150.919 18.3433L151.271 18.2812ZM152.77 17.1701C152.964 17.1358 153.15 17.2656 153.184 17.46L153.722 20.5115C153.756 20.7059 153.627 20.8913 153.432 20.9256L153.08 20.9877C152.886 21.0219 152.701 20.8921 152.666 20.6977L152.128 17.6462C152.094 17.4517 152.224 17.2664 152.418 17.2321L152.77 17.1701Z" fill="#0B0B0B"/>
<rect x="51.1743" y="29.5925" width="73.0875" height="13.6188" rx="6.80939" transform="rotate(-10 51.1743 29.5925)" fill="black"/>
<circle cx="63.9806" cy="34.249" r="5.44752" transform="rotate(-10 63.9806 34.249)" fill="#1E1E1E"/>
<circle cx="63.9805" cy="34.2493" r="2.72376" transform="rotate(-10 63.9805 34.2493)" fill="black"/>
</g>
<g filter="url(#filter0_d_384_2893)">
<rect x="64.2222" y="378.085" width="178.406" height="29.5074" transform="rotate(-10 64.2222 378.085)" fill="white"/>
</g>
<path d="M79.5128 385.069C76.6783 385.568 74.7783 388.282 75.2781 391.116C75.7779 393.951 78.4914 395.851 81.3259 395.351C84.1603 394.851 86.0604 392.138 85.5606 389.303C85.0608 386.469 82.3473 384.569 79.5128 385.069ZM81.1983 394.627C78.7709 395.055 76.4325 393.431 76.0018 390.989C75.5711 388.546 77.198 386.223 79.6404 385.792C82.0678 385.364 84.4062 386.988 84.8369 389.431C85.2675 391.873 83.6257 394.199 81.1983 394.627Z" fill="#D9D9D9"/>
<path d="M82.8724 389.38L80.7371 389.757L80.3606 387.621C80.3238 387.413 80.1161 387.267 79.9074 387.304C79.6987 387.341 79.5532 387.548 79.59 387.757L79.9665 389.892L77.8312 390.269C77.6225 390.306 77.4771 390.513 77.5139 390.722C77.5507 390.931 77.7584 391.076 77.9671 391.04L80.1024 390.663L80.4789 392.798C80.5157 393.007 80.7234 393.153 80.9322 393.116C81.1409 393.079 81.2863 392.871 81.2495 392.662L80.873 390.527L83.0083 390.151C83.217 390.114 83.3625 389.906 83.3257 389.697C83.2889 389.489 83.0811 389.343 82.8724 389.38Z" fill="black"/>
<path d="M123.65 404.022L193.392 391.724" stroke="#1E1E1E" stroke-opacity="0.56" stroke-width="1.81584" stroke-linecap="round"/>
<path d="M201.96 367.381C201.906 367.39 201.857 367.421 201.825 367.466C201.793 367.512 201.781 367.568 201.791 367.623L201.978 368.684C202.216 369.944 203.397 370.805 204.665 370.688C204.666 370.691 204.665 370.694 204.665 370.696L204.763 371.254L203.829 371.419C203.774 371.428 203.726 371.459 203.694 371.504C203.662 371.55 203.65 371.606 203.659 371.661C203.669 371.715 203.7 371.764 203.745 371.795C203.79 371.827 203.847 371.84 203.901 371.83L206.182 371.428C206.237 371.418 206.285 371.387 206.317 371.342C206.349 371.296 206.361 371.24 206.351 371.186C206.342 371.131 206.311 371.083 206.266 371.051C206.22 371.019 206.164 371.007 206.11 371.016L205.175 371.181L205.076 370.624C205.076 370.621 205.074 370.619 205.073 370.616C206.3 370.293 207.116 369.085 206.915 367.824L206.726 366.752C206.717 366.698 206.686 366.649 206.64 366.617C206.595 366.586 206.539 366.573 206.484 366.583C206.43 366.592 206.381 366.623 206.35 366.669C206.318 366.714 206.305 366.77 206.315 366.825L206.502 367.89C206.679 368.995 205.914 370.054 204.799 370.251C203.678 370.448 202.597 369.711 202.388 368.607L202.202 367.55C202.192 367.495 202.161 367.447 202.116 367.415C202.071 367.383 202.015 367.371 201.96 367.381Z" fill="black"/>
<path d="M205.862 367.981L205.548 366.204C205.412 365.429 204.664 364.91 203.881 365.048C203.099 365.186 202.574 365.929 202.71 366.705L203.024 368.482C203.161 369.257 203.908 369.776 204.691 369.638C205.473 369.5 205.998 368.757 205.862 367.981ZM203.435 368.409L203.122 366.632C203.025 366.083 203.398 365.557 203.954 365.459C204.51 365.361 205.04 365.728 205.137 366.277L205.45 368.054C205.547 368.603 205.174 369.129 204.618 369.227C204.063 369.325 203.532 368.958 203.435 368.409Z" fill="black"/>
<path d="M224.73 359.002C227.816 358.458 230.759 360.519 231.303 363.605C231.847 366.692 229.786 369.634 226.7 370.178C223.614 370.723 220.671 368.662 220.127 365.576C219.582 362.49 221.643 359.546 224.73 359.002ZM225.774 365.227C225.667 365.246 225.567 365.29 225.48 365.354L225.441 365.383C225.376 365.431 225.318 365.488 225.268 365.552L224.241 366.868L224.535 366.604C224.652 366.499 224.806 366.446 224.962 366.455C225.017 366.458 225.071 366.467 225.123 366.482L225.288 366.527C225.458 366.575 225.621 366.647 225.771 366.74L226.334 367.088L227.277 367.797L227.708 368.082L227.822 368.136C227.937 368.191 228.067 368.209 228.193 368.187C228.295 368.169 228.392 368.125 228.474 368.059L228.507 368.032C228.6 367.956 228.675 367.859 228.725 367.749L228.734 367.729C228.795 367.595 228.814 367.446 228.788 367.3L228.784 367.275C228.765 367.172 228.722 367.075 228.656 366.992C228.512 366.81 228.339 366.652 228.144 366.523L227.459 366.071L226.479 365.427L226.204 365.29C226.071 365.224 225.92 365.201 225.774 365.227ZM224.936 366.82C224.478 366.901 224.172 367.339 224.253 367.798C224.334 368.256 224.771 368.562 225.229 368.481C225.687 368.4 225.994 367.963 225.914 367.505C225.833 367.046 225.395 366.74 224.936 366.82ZM223.719 363.511C223.823 363.627 223.877 363.781 223.869 363.938C223.865 363.992 223.855 364.046 223.841 364.099L223.795 364.264C223.748 364.434 223.677 364.596 223.584 364.746L223.235 365.311L222.526 366.253L222.241 366.684L222.186 366.798C222.131 366.913 222.114 367.043 222.136 367.168C222.154 367.271 222.198 367.368 222.264 367.449L222.29 367.482C222.366 367.576 222.464 367.651 222.574 367.701L222.593 367.71C222.727 367.77 222.877 367.789 223.022 367.764L223.048 367.759C223.151 367.741 223.248 367.697 223.33 367.632C223.512 367.487 223.671 367.314 223.799 367.12L224.251 366.434L224.897 365.455L225.033 365.18C225.099 365.047 225.121 364.896 225.096 364.75C225.077 364.643 225.034 364.542 224.969 364.455L224.94 364.417C224.891 364.352 224.834 364.294 224.77 364.244L223.456 363.217L223.719 363.511ZM228.687 364.436C228.229 364.517 227.923 364.953 228.004 365.412C228.085 365.87 228.522 366.176 228.98 366.095C229.439 366.015 229.746 365.577 229.665 365.119C229.584 364.66 229.146 364.355 228.687 364.436ZM228.458 361.566C228.355 361.584 228.258 361.627 228.176 361.693C227.994 361.837 227.835 362.009 227.707 362.204L227.255 362.89L226.609 363.87L226.473 364.144C226.407 364.277 226.385 364.429 226.41 364.575C226.429 364.681 226.473 364.782 226.538 364.868L226.566 364.908C226.615 364.973 226.672 365.031 226.736 365.081L228.051 366.108L227.787 365.813C227.683 365.696 227.63 365.543 227.638 365.387C227.642 365.332 227.651 365.278 227.665 365.225L227.711 365.06C227.758 364.89 227.829 364.727 227.922 364.577L228.271 364.014L228.98 363.071L229.265 362.64L229.32 362.527C229.375 362.412 229.392 362.281 229.37 362.155C229.352 362.053 229.308 361.956 229.243 361.875L229.216 361.842C229.14 361.749 229.042 361.674 228.932 361.624L228.913 361.615C228.779 361.554 228.629 361.535 228.484 361.561L228.458 361.566ZM222.526 363.228C222.067 363.309 221.761 363.746 221.841 364.205C221.922 364.663 222.36 364.97 222.819 364.889C223.277 364.808 223.583 364.37 223.502 363.912C223.421 363.454 222.984 363.148 222.526 363.228ZM223.188 361.002C223.086 361.02 222.989 361.064 222.908 361.13L222.876 361.158C222.782 361.234 222.707 361.33 222.657 361.44L222.648 361.459C222.587 361.594 222.568 361.743 222.594 361.889L222.599 361.914C222.617 362.018 222.661 362.115 222.726 362.197C222.87 362.38 223.043 362.538 223.238 362.665L223.923 363.118L224.903 363.763L225.177 363.899C225.31 363.966 225.462 363.988 225.608 363.962C225.714 363.943 225.815 363.9 225.901 363.836L225.941 363.806C226.006 363.758 226.064 363.702 226.114 363.638L227.141 362.322L226.846 362.586C226.729 362.69 226.576 362.744 226.42 362.735C226.365 362.732 226.311 362.723 226.258 362.708L226.093 362.662C225.923 362.614 225.761 362.543 225.611 362.45L225.047 362.102L224.104 361.392L223.673 361.107L223.56 361.053C223.445 360.998 223.314 360.98 223.188 361.002ZM226.152 360.708C225.694 360.789 225.388 361.227 225.469 361.685C225.55 362.143 225.986 362.449 226.445 362.369C226.903 362.288 227.209 361.851 227.128 361.392C227.048 360.934 226.611 360.627 226.152 360.708Z" fill="#1E1E1E"/>
<path d="M98.2141 384.766L97.402 389.39L96.757 389.503L97.7336 384.415L98.1495 384.342L98.2141 384.766ZM100.303 388.878L97.9554 384.812L97.8711 384.391L98.287 384.318L100.951 388.764L100.303 388.878ZM99.9101 387.128L100.001 387.645L97.3228 388.117L97.2316 387.6L99.9101 387.128ZM103.395 387.364C103.38 387.277 103.346 387.199 103.294 387.132C103.243 387.062 103.154 387.007 103.025 386.967C102.898 386.924 102.714 386.9 102.472 386.895C102.268 386.889 102.082 386.871 101.912 386.842C101.745 386.813 101.599 386.768 101.473 386.707C101.35 386.645 101.249 386.565 101.171 386.466C101.093 386.368 101.041 386.245 101.015 386.099C100.99 385.959 100.998 385.822 101.037 385.687C101.078 385.551 101.147 385.425 101.244 385.309C101.342 385.193 101.468 385.093 101.62 385.01C101.772 384.927 101.947 384.868 102.146 384.833C102.429 384.783 102.681 384.79 102.899 384.855C103.118 384.92 103.295 385.027 103.432 385.176C103.568 385.324 103.654 385.499 103.69 385.702L103.084 385.808C103.067 385.71 103.02 385.62 102.945 385.539C102.872 385.455 102.774 385.393 102.652 385.351C102.532 385.309 102.393 385.302 102.233 385.33C102.065 385.36 101.933 385.41 101.838 385.481C101.744 385.549 101.68 385.627 101.646 385.714C101.614 385.801 101.606 385.888 101.621 385.975C101.633 386.041 101.654 386.098 101.685 386.146C101.718 386.192 101.768 386.232 101.834 386.265C101.901 386.296 101.99 386.321 102.104 386.339C102.217 386.357 102.36 386.37 102.533 386.378C102.835 386.393 103.088 386.429 103.292 386.488C103.495 386.546 103.655 386.634 103.77 386.751C103.885 386.868 103.96 387.021 103.993 387.211C104.02 387.366 104.013 387.514 103.97 387.654C103.929 387.794 103.856 387.922 103.751 388.037C103.647 388.15 103.515 388.248 103.356 388.33C103.199 388.409 103.017 388.467 102.81 388.504C102.498 388.559 102.224 388.55 101.988 388.476C101.752 388.403 101.563 388.288 101.421 388.131C101.278 387.974 101.189 387.797 101.155 387.6L101.764 387.493C101.802 387.657 101.873 387.781 101.978 387.864C102.082 387.944 102.201 387.994 102.335 388.013C102.469 388.03 102.598 388.028 102.722 388.006C102.888 387.977 103.023 387.93 103.126 387.867C103.232 387.803 103.308 387.728 103.353 387.641C103.399 387.555 103.413 387.462 103.395 387.364ZM104.685 382.92L105.572 387.949L104.963 388.057L104.076 383.027L104.685 382.92ZM107.111 384.025L105.857 385.951L105.151 387L104.988 386.364L105.477 385.515L106.371 384.155L107.111 384.025ZM107.183 387.665L105.621 386.198L105.84 385.603L107.896 387.539L107.183 387.665ZM111.115 382.491L110.303 387.115L109.658 387.229L110.635 382.141L111.051 382.067L111.115 382.491ZM113.204 386.603L110.857 382.537L110.772 382.116L111.188 382.043L113.853 386.489L113.204 386.603ZM112.811 384.853L112.902 385.37L110.224 385.843L110.133 385.325L112.811 384.853ZM114.514 383.499L115.005 386.286L114.399 386.393L113.775 382.85L114.348 382.749L114.514 383.499ZM114.525 384.405L114.271 384.44C114.231 384.197 114.227 383.967 114.261 383.75C114.294 383.53 114.361 383.333 114.46 383.158C114.56 382.982 114.69 382.838 114.85 382.724C115.012 382.608 115.199 382.531 115.413 382.493C115.588 382.462 115.749 382.459 115.898 382.482C116.045 382.503 116.177 382.557 116.294 382.642C116.412 382.727 116.512 382.846 116.593 383.001C116.674 383.153 116.735 383.346 116.777 383.58L117.186 385.901L116.577 386.009L116.166 383.681C116.134 383.495 116.08 383.351 116.006 383.25C115.931 383.146 115.837 383.078 115.724 383.046C115.61 383.012 115.476 383.009 115.323 383.036C115.173 383.062 115.041 383.118 114.928 383.203C114.816 383.288 114.726 383.394 114.656 383.521C114.588 383.648 114.542 383.788 114.517 383.941C114.494 384.091 114.497 384.246 114.525 384.405ZM119.037 385.197L119.462 381.847L120.111 381.733L119.411 386.073C119.393 386.166 119.366 386.267 119.329 386.377C119.295 386.489 119.244 386.598 119.178 386.705C119.111 386.811 119.024 386.903 118.916 386.98C118.81 387.06 118.677 387.114 118.515 387.142C118.467 387.151 118.405 387.155 118.329 387.155C118.252 387.155 118.198 387.153 118.166 387.15L118.076 386.659C118.094 386.658 118.121 386.656 118.159 386.651C118.199 386.649 118.227 386.646 118.242 386.644C118.379 386.619 118.493 386.58 118.582 386.526C118.672 386.474 118.742 386.4 118.793 386.303C118.846 386.208 118.884 386.084 118.906 385.929L119.037 385.197ZM117.753 382.148L119.158 384.736L119.428 385.347L119.032 385.647L117.092 382.265L117.753 382.148ZM122.141 381.375L122.223 381.84L120.307 382.177L120.225 381.712L122.141 381.375ZM120.722 380.737L121.327 380.63L121.949 384.157C121.97 384.277 122.005 384.364 122.053 384.418C122.101 384.473 122.156 384.505 122.218 384.514C122.281 384.523 122.346 384.522 122.413 384.51C122.464 384.501 122.515 384.488 122.568 384.469C122.623 384.448 122.664 384.432 122.691 384.421L122.782 384.915C122.736 384.938 122.676 384.964 122.599 384.991C122.526 385.019 122.434 385.043 122.325 385.063C122.177 385.089 122.035 385.083 121.9 385.046C121.765 385.009 121.649 384.929 121.55 384.804C121.454 384.677 121.384 384.496 121.343 384.26L120.722 380.737ZM123.195 379.656L124.082 384.685L123.476 384.792L122.589 379.763L123.195 379.656ZM123.602 382.805L123.348 382.84C123.307 382.597 123.304 382.367 123.337 382.149C123.371 381.93 123.437 381.732 123.537 381.557C123.637 381.382 123.766 381.238 123.926 381.124C124.088 381.008 124.276 380.931 124.49 380.893C124.665 380.862 124.826 380.858 124.974 380.882C125.122 380.903 125.254 380.956 125.37 381.041C125.489 381.126 125.589 381.246 125.67 381.4C125.751 381.553 125.812 381.746 125.853 381.979L126.262 384.301L125.653 384.408L125.243 382.08C125.21 381.895 125.157 381.751 125.083 381.649C125.008 381.545 124.914 381.478 124.8 381.446C124.686 381.412 124.553 381.408 124.4 381.435C124.249 381.462 124.117 381.518 124.004 381.603C123.893 381.688 123.803 381.794 123.733 381.921C123.665 382.048 123.619 382.188 123.594 382.34C123.571 382.491 123.574 382.646 123.602 382.805ZM127.203 380.482L127.828 384.025L127.219 384.132L126.594 380.589L127.203 380.482ZM126.382 379.658C126.365 379.559 126.38 379.471 126.427 379.393C126.476 379.315 126.56 379.265 126.677 379.244C126.793 379.224 126.888 379.242 126.961 379.299C127.036 379.356 127.082 379.433 127.099 379.531C127.116 379.625 127.099 379.711 127.047 379.79C126.998 379.867 126.915 379.915 126.799 379.935C126.681 379.956 126.586 379.939 126.513 379.884C126.443 379.827 126.399 379.752 126.382 379.658ZM128.915 380.96L129.406 383.747L128.8 383.853L128.175 380.31L128.748 380.209L128.915 380.96ZM128.926 381.866L128.672 381.901C128.631 381.658 128.628 381.428 128.662 381.211C128.695 380.991 128.761 380.793 128.861 380.618C128.961 380.443 129.091 380.299 129.251 380.185C129.412 380.069 129.6 379.992 129.814 379.954C129.989 379.923 130.15 379.92 130.298 379.943C130.446 379.964 130.578 380.017 130.695 380.103C130.813 380.188 130.913 380.307 130.994 380.462C131.075 380.614 131.136 380.807 131.177 381.04L131.587 383.362L130.978 383.469L130.567 381.141C130.534 380.956 130.481 380.812 130.407 380.71C130.332 380.607 130.238 380.539 130.124 380.507C130.01 380.473 129.877 380.47 129.724 380.497C129.574 380.523 129.442 380.579 129.328 380.664C129.217 380.749 129.127 380.855 129.057 380.982C128.989 381.109 128.943 381.249 128.918 381.402C128.895 381.552 128.898 381.707 128.926 381.866ZM134.177 379.252L134.727 379.155L135.339 382.623C135.394 382.935 135.378 383.212 135.29 383.455C135.202 383.698 135.055 383.896 134.848 384.05C134.643 384.205 134.394 384.309 134.099 384.361C133.977 384.382 133.829 384.388 133.656 384.378C133.486 384.37 133.313 384.334 133.138 384.27C132.965 384.208 132.811 384.111 132.677 383.977L132.932 383.56C133.112 383.713 133.288 383.81 133.462 383.852C133.638 383.893 133.806 383.899 133.965 383.871C134.158 383.837 134.317 383.772 134.444 383.675C134.571 383.579 134.66 383.453 134.712 383.297C134.766 383.144 134.774 382.964 134.738 382.759L134.259 380.041L134.177 379.252ZM132.057 381.493L132.045 381.424C131.997 381.154 131.986 380.902 132.01 380.671C132.036 380.437 132.095 380.229 132.187 380.049C132.282 379.868 132.407 379.72 132.565 379.604C132.722 379.486 132.908 379.408 133.125 379.37C133.347 379.331 133.548 379.336 133.728 379.385C133.91 379.432 134.071 379.52 134.213 379.648C134.357 379.773 134.481 379.934 134.585 380.129C134.689 380.324 134.778 380.551 134.85 380.808L134.903 381.109C134.925 381.373 134.919 381.615 134.886 381.835C134.855 382.054 134.793 382.247 134.701 382.414C134.611 382.581 134.489 382.719 134.335 382.827C134.18 382.933 133.991 383.006 133.766 383.045C133.554 383.083 133.354 383.072 133.166 383.013C132.98 382.953 132.811 382.853 132.661 382.713C132.51 382.573 132.383 382.4 132.279 382.193C132.176 381.984 132.103 381.751 132.057 381.493ZM132.651 381.317L132.663 381.386C132.694 381.563 132.741 381.726 132.803 381.875C132.868 382.023 132.947 382.15 133.042 382.255C133.139 382.359 133.253 382.435 133.383 382.481C133.512 382.526 133.659 382.534 133.823 382.505C134.023 382.47 134.182 382.398 134.298 382.29C134.414 382.182 134.498 382.051 134.549 381.898C134.603 381.744 134.638 381.582 134.652 381.41L134.513 380.621C134.468 380.505 134.411 380.396 134.341 380.294C134.273 380.189 134.192 380.099 134.098 380.026C134.006 379.95 133.898 379.896 133.775 379.863C133.653 379.831 133.515 379.828 133.362 379.855C133.196 379.884 133.059 379.944 132.952 380.036C132.846 380.124 132.765 380.235 132.71 380.369C132.656 380.499 132.625 380.647 132.615 380.811C132.608 380.972 132.62 381.141 132.651 381.317Z" fill="black" fill-opacity="0.65"/>
<path d="M37.1399 62.4106L36.0363 56.1517L39.0405 55.622C39.4101 55.5568 39.7591 55.5844 40.0877 55.7047C40.4151 55.8191 40.6935 56.0035 40.9228 56.2581C41.1521 56.5127 41.2982 56.8188 41.3613 57.1765C41.4265 57.546 41.3924 57.8932 41.2591 58.2178C41.1307 58.5355 40.9263 58.8051 40.6457 59.0266C40.3642 59.2422 40.0326 59.3837 39.6511 59.4509L37.4069 59.8467L37.8373 62.2876L37.1399 62.4106ZM41.5926 61.6255L39.2294 59.2026L39.8784 58.8577L42.442 61.4757L41.5926 61.6255ZM37.2871 59.1671L39.5134 58.7746C39.7697 58.7294 39.9868 58.6358 40.1646 58.4938C40.3483 58.3508 40.4805 58.1769 40.5612 57.9721C40.6468 57.7603 40.6696 57.5412 40.6297 57.3147C40.5876 57.0763 40.4877 56.8757 40.33 56.713C40.1722 56.5503 39.9796 56.4336 39.752 56.3631C39.5245 56.2926 39.2766 56.281 39.0083 56.3283L36.8535 56.7083L37.2871 59.1671ZM46.6547 60.8251C46.1063 60.9218 45.5996 60.9066 45.1347 60.7796C44.6747 60.6456 44.2934 60.4178 43.9909 60.0963C43.6943 59.7736 43.505 59.3799 43.423 58.9149C43.3578 58.5453 43.3675 58.1995 43.4521 57.8772C43.5415 57.548 43.6895 57.2546 43.8961 56.9969C44.1076 56.7322 44.3667 56.5113 44.6735 56.3343C44.9863 56.1562 45.3305 56.0341 45.706 55.9679C46.0637 55.9048 46.4075 55.9026 46.7374 55.9612C47.0663 56.0138 47.3589 56.122 47.6151 56.2858C47.8774 56.4485 48.0923 56.6565 48.2599 56.9096C48.4274 57.1628 48.5347 57.4574 48.5816 57.7933L48.6373 58.1614L44.0147 58.9765L43.817 58.4306L48.0283 57.688L47.8847 57.8147L47.8469 57.6002C47.795 57.3757 47.6743 57.1788 47.4846 57.0095C47.2949 56.8401 47.055 56.7165 46.7646 56.6386C46.4803 56.5596 46.1653 56.5507 45.8195 56.6116C45.438 56.6789 45.1033 56.8024 44.8155 56.9823C44.5276 57.1621 44.3173 57.3989 44.1847 57.6927C44.0581 57.9855 44.0311 58.3375 44.1036 58.7488C44.1677 59.1124 44.3134 59.4156 44.5405 59.6582C44.7667 59.8949 45.0627 60.0578 45.4288 60.147C45.7948 60.2361 46.2044 60.2407 46.6574 60.1608C47.021 60.0967 47.3315 59.9928 47.5889 59.8491C47.8463 59.7053 48.0868 59.5185 48.3106 59.2885L48.7134 59.743C48.5755 59.9025 48.4028 60.0559 48.1952 60.2031C47.9866 60.3444 47.7539 60.4714 47.4973 60.5843C47.2395 60.6912 46.9587 60.7715 46.6547 60.8251ZM52.9125 59.7216C52.4237 59.8078 51.9665 59.8116 51.5408 59.733C51.1211 59.6534 50.7674 59.4945 50.4796 59.2564L50.8778 58.7436C51.1263 58.9334 51.4131 59.061 51.7382 59.1266C52.0632 59.1923 52.4075 59.193 52.7711 59.1289C52.9499 59.0974 53.1207 59.055 53.2834 59.0017C53.4461 58.9484 53.5878 58.8804 53.7084 58.7977C53.829 58.7149 53.9202 58.622 53.9819 58.519C54.0426 58.4099 54.0614 58.2898 54.0382 58.1587C54.0015 57.9501 53.8409 57.8063 53.5565 57.7274C53.4159 57.6968 53.2455 57.6716 53.0453 57.6516C52.8511 57.6305 52.6246 57.6182 52.3658 57.6146C51.9815 57.5964 51.6484 57.5721 51.3665 57.5419C51.0836 57.5058 50.8501 57.4363 50.666 57.3335C50.523 57.2543 50.4066 57.1519 50.3168 57.0264C50.233 56.8998 50.1759 56.75 50.1454 56.5772C50.1097 56.3745 50.1283 56.1838 50.2013 56.005C50.2742 55.8261 50.3891 55.6584 50.5458 55.5017C50.7085 55.3439 50.9068 55.2137 51.1407 55.111C51.3746 55.0083 51.6346 54.9317 51.9207 54.8813C52.177 54.8361 52.4416 54.8201 52.7144 54.8335C52.9921 54.8398 53.2606 54.8816 53.5201 54.9588C53.7845 55.0289 54.0113 55.1303 54.2006 55.2629L53.8981 55.7956C53.7281 55.7027 53.5388 55.6224 53.3302 55.5547C53.1275 55.4859 52.9141 55.4436 52.6901 55.4278C52.471 55.405 52.2571 55.412 52.0484 55.4488C51.8756 55.4792 51.7113 55.5236 51.5556 55.5818C51.4059 55.6389 51.2712 55.7118 51.1517 55.8005C51.0321 55.8892 50.942 55.988 50.8813 56.0971C50.8255 56.1991 50.8076 56.3068 50.8276 56.42C50.8493 56.5084 50.8874 56.5846 50.9417 56.6488C50.996 56.713 51.0726 56.764 51.1715 56.8019C51.2984 56.8594 51.4715 56.8996 51.6906 56.9224C51.9087 56.9393 52.1631 56.9528 52.4537 56.963C52.7732 56.962 53.0644 56.9752 53.3273 57.0026C53.5963 57.0289 53.8201 57.0786 53.9989 57.1515C54.2026 57.2262 54.3623 57.3302 54.478 57.4635C54.5937 57.5967 54.6689 57.7617 54.7036 57.9584C54.754 58.2445 54.7117 58.5101 54.5767 58.7552C54.4406 58.9943 54.2276 59.1978 53.9376 59.3657C53.6476 59.5336 53.3059 59.6523 52.9125 59.7216ZM58.7889 58.6855C58.3001 58.7717 57.8429 58.7755 57.4173 58.6969C56.9976 58.6172 56.6438 58.4583 56.356 58.2202L56.7542 57.7075C57.0028 57.8972 57.2896 58.0249 57.6146 58.0905C57.9396 58.1561 58.2839 58.1568 58.6475 58.0927C58.8264 58.0612 58.9971 58.0188 59.1598 57.9655C59.3225 57.9122 59.4642 57.8442 59.5848 57.7615C59.7054 57.6788 59.7966 57.5859 59.8583 57.4828C59.919 57.3738 59.9378 57.2537 59.9147 57.1225C59.8779 56.9139 59.7173 56.7701 59.433 56.6912C59.2924 56.6607 59.122 56.6354 58.9218 56.6154C58.7275 56.5943 58.501 56.582 58.2422 56.5785C57.858 56.5602 57.5249 56.5359 57.243 56.5057C56.96 56.4696 56.7265 56.4001 56.5424 56.2974C56.3994 56.2181 56.283 56.1157 56.1933 55.9902C56.1095 55.8636 56.0523 55.7139 56.0219 55.541C55.9861 55.3383 56.0047 55.1476 56.0777 54.9688C56.1506 54.79 56.2655 54.6222 56.4223 54.4655C56.585 54.3077 56.7833 54.1775 57.0171 54.0748C57.251 53.9721 57.511 53.8955 57.7972 53.8451C58.0535 53.7999 58.318 53.784 58.5908 53.7973C58.8685 53.8037 59.1371 53.8454 59.3965 53.9226C59.6609 53.9928 59.8877 54.0941 60.0771 54.2267L59.7746 54.7594C59.6045 54.6665 59.4152 54.5862 59.2066 54.5185C59.0039 54.4497 58.7906 54.4074 58.5665 54.3916C58.3474 54.3688 58.1335 54.3758 57.9249 54.4126C57.752 54.4431 57.5877 54.4874 57.4321 54.5456C57.2823 54.6027 57.1477 54.6756 57.0281 54.7643C56.9085 54.853 56.8184 54.9519 56.7577 55.0609C56.702 55.1629 56.6841 55.2706 56.704 55.3838C56.7258 55.4722 56.7638 55.5485 56.8181 55.6126C56.8725 55.6768 56.9491 55.7278 57.0479 55.7657C57.1749 55.8232 57.3479 55.8634 57.567 55.8862C57.7851 55.9031 58.0395 55.9166 58.3302 55.9268C58.6496 55.9258 58.9408 55.939 59.2038 55.9664C59.4727 55.9927 59.6966 56.0424 59.8754 56.1153C60.0791 56.1901 60.2388 56.294 60.3545 56.4273C60.4701 56.5605 60.5453 56.7255 60.58 56.9222C60.6305 57.2084 60.5882 57.4739 60.4532 57.719C60.3171 57.9581 60.104 58.1616 59.814 58.3296C59.5241 58.4975 59.1823 58.6161 58.7889 58.6855ZM64.127 59.7725L64.8316 57.3895L64.9835 57.9896L61.3767 53.3245L62.1367 53.1905L64.3795 56.1324C64.5446 56.3369 64.6902 56.5355 64.8164 56.7284C64.9416 56.9153 65.0482 57.084 65.1361 57.2344L64.9105 57.2096C64.9498 57.0491 64.99 56.876 65.031 56.6906C65.078 56.504 65.1314 56.301 65.191 56.0815L66.1603 52.4811L66.9292 52.3455L65.469 57.397L64.8423 59.6463L64.127 59.7725ZM69.7278 56.6645L68.9048 51.9971L69.5665 51.8805L69.7999 53.047L69.6258 53.1054C69.6763 52.8691 69.7796 52.6357 69.9356 52.4054C70.0977 52.174 70.3077 51.971 70.5658 51.7964C70.8228 51.6159 71.1123 51.4973 71.4342 51.4405C71.8574 51.3659 72.2233 51.3843 72.5318 51.4959C72.8463 51.6064 73.1019 51.801 73.2986 52.0798C73.5001 52.3515 73.6367 52.6901 73.7081 53.0954L74.1984 55.8762L73.5189 55.996L73.0412 53.2868C72.9887 52.9887 72.8839 52.7429 72.7268 52.5494C72.5697 52.3558 72.3739 52.2213 72.1394 52.1459C71.9097 52.0635 71.6548 52.0469 71.3747 52.0963C71.1243 52.1405 70.9027 52.2257 70.7098 52.3519C70.517 52.4781 70.3557 52.6264 70.2259 52.7967C70.1021 52.9661 70.0137 53.1445 69.9607 53.3321C69.9078 53.5197 69.8976 53.7059 69.9302 53.8907L70.3984 56.5462L70.0676 56.6045C70.002 56.6161 69.9394 56.6271 69.8798 56.6377C69.8262 56.6471 69.7755 56.6561 69.7278 56.6645Z" fill="black"/>
<g clip-path="url(#clip3_384_2893)">
<path d="M151.395 35.3285C150.84 34.9404 150.026 35.0839 149.595 35.6458L146.722 39.6424C146.475 39.9952 146.329 40.4185 146.318 40.8621L146.313 41.8348C146.293 41.9709 146.366 42.1348 146.51 42.1978C146.611 42.2684 146.704 42.2961 146.832 42.2734C146.875 42.2659 146.875 42.2659 146.918 42.2583L147.83 41.9207C148.244 41.7595 148.591 41.4773 148.838 41.1245L151.704 37.0851C151.924 36.8256 151.992 36.4602 151.931 36.1174C151.871 35.7747 151.69 35.4974 151.395 35.3285ZM148.168 40.5801C148.027 40.7817 147.793 40.9555 147.543 41.0437L147.216 41.1898L147.248 40.8748C147.246 40.6102 147.337 40.3733 147.513 40.1213L149.709 37.0395L150.407 37.4907L148.168 40.5801ZM150.999 36.5911L150.858 36.7927L150.16 36.3415L150.301 36.1399C150.371 36.0391 150.492 35.9736 150.578 35.9585C150.707 35.9358 150.8 35.9635 150.901 36.0341C151.001 36.1047 151.059 36.1828 151.075 36.2685C151.09 36.3542 151.112 36.4827 150.999 36.5911Z" fill="black"/>
<path d="M151.452 38.4106C151.195 38.4559 151.054 38.6575 151.099 38.9146L151.485 41.0996C151.613 41.8279 151.154 42.4831 150.426 42.6115L146.998 43.2159C146.27 43.3443 145.615 42.8856 145.486 42.1572L144.882 38.7297C144.754 38.0014 145.212 37.3462 145.941 37.2178L148.083 36.8401C148.34 36.7947 148.481 36.5932 148.436 36.3361C148.39 36.079 148.189 35.9379 147.932 35.9832L145.79 36.3609C144.59 36.5724 143.814 37.6812 144.025 38.8808L144.63 42.3083C144.841 43.5079 145.95 44.2843 147.149 44.0728L150.577 43.4684C151.777 43.2569 152.553 42.1481 152.341 40.9485L151.956 38.7635C151.918 38.5493 151.709 38.3653 151.452 38.4106Z" fill="black"/>
</g>
<path d="M169.94 35.6173C170.034 36.1488 170.543 36.505 171.074 36.4113C171.606 36.3176 171.962 35.8088 171.868 35.2773C171.775 34.7459 171.266 34.3896 170.734 34.4833C170.203 34.5771 169.847 35.0858 169.94 35.6173Z" fill="black"/>
<path d="M170.507 38.8307C170.601 39.3622 171.11 39.7184 171.641 39.6247C172.173 39.531 172.529 39.0222 172.435 38.4907C172.342 37.9593 171.833 37.603 171.301 37.6967C170.77 37.7904 170.414 38.2992 170.507 38.8307Z" fill="black"/>
<path d="M169.374 32.404C169.468 32.9355 169.977 33.2918 170.508 33.198C171.04 33.1043 171.396 32.5956 171.302 32.0641C171.208 31.5326 170.7 31.1764 170.168 31.2701C169.637 31.3638 169.28 31.8726 169.374 32.404Z" fill="black"/>
<g clip-path="url(#clip4_384_2893)">
<path d="M24.8286 58.3527L16.4742 59.8258C16.3889 59.8408 16.3132 59.8891 16.2635 59.96C16.2139 60.0309 16.1945 60.1186 16.2095 60.2038C16.2245 60.289 16.2728 60.3648 16.3437 60.4144C16.4146 60.464 16.5023 60.4835 16.5875 60.4684L24.942 58.9953C25.0272 58.9803 25.1029 58.932 25.1526 58.8611C25.2022 58.7903 25.2217 58.7026 25.2066 58.6173C25.1916 58.5321 25.1433 58.4564 25.0725 58.4067C25.0016 58.3571 24.9139 58.3376 24.8286 58.3527Z" fill="black"/>
<path d="M17.0972 63.3604L21.2745 62.6238C21.3597 62.6088 21.4355 62.5606 21.4851 62.4897C21.5347 62.4188 21.5542 62.3311 21.5392 62.2459C21.5241 62.1606 21.4759 62.0849 21.405 62.0352C21.3341 61.9856 21.2464 61.9662 21.1612 61.9812L16.9839 62.7178C16.8987 62.7328 16.8229 62.781 16.7733 62.8519C16.7237 62.9228 16.7042 63.0105 16.7193 63.0957C16.7343 63.181 16.7825 63.2567 16.8534 63.3064C16.9243 63.356 17.012 63.3754 17.0972 63.3604Z" fill="black"/>
<path d="M24.5629 64.363L17.4937 65.6095C17.4085 65.6245 17.3327 65.6728 17.2831 65.7437C17.2334 65.8145 17.214 65.9022 17.229 65.9875C17.244 66.0727 17.2923 66.1484 17.3632 66.1981C17.4341 66.2477 17.5218 66.2672 17.607 66.2521L24.6762 65.0056C24.7614 64.9906 24.8372 64.9424 24.8868 64.8715C24.9364 64.8006 24.9559 64.7129 24.9409 64.6277C24.9258 64.5424 24.8776 64.4667 24.8067 64.417C24.7358 64.3674 24.6481 64.348 24.5629 64.363Z" fill="black"/>
</g>
<path d="M112.203 221.11L109.373 223.643L119.244 210.994C119.724 210.378 120.286 209.83 120.913 209.365L121.288 209.087C122.122 208.468 123.089 208.052 124.112 207.872C125.521 207.623 126.974 207.833 128.255 208.472L130.895 209.786L140.313 215.992L146.909 220.338C148.779 221.57 150.44 223.091 151.832 224.844C152.46 225.635 152.88 226.57 153.056 227.564L153.098 227.807C153.345 229.205 153.163 230.644 152.577 231.937L152.495 232.119C152.015 233.179 151.294 234.112 150.391 234.845L150.072 235.103C149.293 235.736 148.365 236.159 147.377 236.333C146.164 236.547 144.916 236.377 143.805 235.846L142.716 235.326L138.573 232.58L129.505 225.764L124.083 222.412C122.64 221.519 121.078 220.834 119.444 220.377L117.862 219.934C117.353 219.791 116.83 219.704 116.302 219.675C114.799 219.589 113.325 220.106 112.203 221.11Z" fill="#DE3426"/>
<circle cx="117.47" cy="231.179" r="8.10736" transform="rotate(-10 117.47 231.179)" fill="#DE3426"/>
<path d="M134.427 182.464L137.257 179.931L127.386 192.579C126.906 193.195 126.344 193.743 125.717 194.208L125.342 194.486C124.508 195.105 123.541 195.521 122.518 195.701C121.109 195.95 119.656 195.74 118.375 195.102L115.735 193.787L106.317 187.582L99.7207 183.235C97.8513 182.003 96.1895 180.482 94.7976 178.729C94.17 177.938 93.7496 177.004 93.5743 176.009L93.5314 175.766C93.285 174.369 93.4666 172.929 94.0525 171.636L94.1352 171.454C94.6153 170.394 95.3354 169.461 96.2386 168.729L96.5576 168.47C97.337 167.837 98.2648 167.414 99.2532 167.24C100.465 167.026 101.714 167.196 102.825 167.727L103.914 168.247L108.057 170.993L117.125 177.809L122.547 181.161C123.99 182.054 125.552 182.739 127.186 183.196L128.768 183.639C129.277 183.782 129.8 183.869 130.328 183.899C131.83 183.984 133.305 183.467 134.427 182.464Z" fill="#DE3426"/>
<circle cx="129.16" cy="172.394" r="8.10736" transform="rotate(170 129.16 172.394)" fill="#DE3426"/>
<path d="M143.476 213.502L146.009 216.332L133.36 206.461C132.744 205.981 132.196 205.419 131.731 204.792L131.453 204.417C130.834 203.583 130.418 202.616 130.238 201.594C129.989 200.184 130.199 198.731 130.838 197.45L132.152 194.81L138.358 185.392L142.704 178.796C143.936 176.926 145.457 175.265 147.21 173.873C148.001 173.245 148.936 172.825 149.93 172.649L150.173 172.607C151.571 172.36 153.01 172.542 154.303 173.128L154.485 173.21C155.545 173.69 156.478 174.411 157.211 175.314L157.469 175.633C158.102 176.412 158.525 177.34 158.699 178.328C158.913 179.541 158.743 180.789 158.212 181.9L157.692 182.989L154.946 187.132L148.13 196.201L144.778 201.622C143.885 203.065 143.2 204.627 142.743 206.261L142.3 207.843C142.157 208.352 142.07 208.875 142.041 209.403C141.955 210.906 142.472 212.381 143.476 213.502Z" fill="#ECB534"/>
<circle cx="153.545" cy="208.234" r="8.10736" transform="rotate(-100 153.545 208.234)" fill="#ECB534"/>
<path d="M104.352 191.362L101.819 188.532L114.468 198.403C115.083 198.883 115.631 199.445 116.097 200.072L116.375 200.447C116.993 201.281 117.409 202.248 117.59 203.271C117.838 204.681 117.628 206.133 116.99 207.415L115.676 210.054L109.47 219.472L105.124 226.069C103.892 227.938 102.371 229.6 100.617 230.992C99.8266 231.619 98.892 232.04 97.8979 232.215L97.6548 232.258C96.2571 232.504 94.8175 232.323 93.5248 231.737L93.3422 231.654C92.2829 231.174 91.3499 230.454 90.6171 229.551L90.3583 229.232C89.7259 228.452 89.3025 227.524 89.1283 226.536C88.9145 225.324 89.0849 224.075 89.6155 222.964L90.1359 221.875L92.8813 217.732L99.6976 208.664L103.05 203.242C103.942 201.799 104.627 200.237 105.085 198.603L105.528 197.021C105.67 196.512 105.757 195.989 105.787 195.462C105.872 193.959 105.356 192.484 104.352 191.362Z" fill="#ECB534"/>
<circle cx="94.2825" cy="196.63" r="8.10736" transform="rotate(80 94.2825 196.63)" fill="#ECB534"/>
</g>
</g>
<defs>
<filter id="filter0_d_384_2893" x="62.8603" y="345.289" width="183.544" height="62.7627" filterUnits="userSpaceOnUse" color-interpolation-filters="sRGB">
<feFlood flood-opacity="0" result="BackgroundImageFix"/>
<feColorMatrix in="SourceAlpha" type="matrix" values="0 0 0 0 0 0 0 0 0 0 0 0 0 0 0 0 0 0 127 0" result="hardAlpha"/>
<feOffset dy="-0.45396"/>
<feGaussianBlur stdDeviation="0.680939"/>
<feComposite in2="hardAlpha" operator="out"/>
<feColorMatrix type="matrix" values="0 0 0 0 0 0 0 0 0 0 0 0 0 0 0 0 0 0 0.25 0"/>
<feBlend mode="normal" in2="BackgroundImageFix" result="effect1_dropShadow_384_2893"/>
<feBlend mode="normal" in="SourceGraphic" in2="effect1_dropShadow_384_2893" result="shape"/>
</filter>
<clipPath id="clip0_384_2893">
<rect y="32.1624" width="185.216" height="392.221" rx="11.349" transform="rotate(-10 0 32.1624)" fill="white"/>
</clipPath>
<clipPath id="clip1_384_2893">
<rect x="3.60254" y="34.293" width="178.406" height="386.774" rx="11.349" transform="rotate(-10 3.60254 34.293)" fill="white"/>
</clipPath>
<clipPath id="clip2_384_2893">
<rect width="167.511" height="19.5203" fill="white" transform="translate(9.43994 36.0297) rotate(-10)"/>
</clipPath>
<clipPath id="clip3_384_2893">
<rect width="10.4411" height="10.4411" fill="white" transform="translate(142.136 35.6799) rotate(-10)"/>
</clipPath>
<clipPath id="clip4_384_2893">
<rect width="10.4411" height="10.4411" fill="white" transform="translate(15.1699 58.0675) rotate(-10)"/>
</clipPath>
</defs>
</svg>
