<svg width="206" height="70" viewBox="0 0 206 70" fill="none" xmlns="http://www.w3.org/2000/svg">
<path d="M22.2383 50.6668L19.2815 52.502L30.2008 42.6593C30.7323 42.1802 31.3262 41.7751 31.9663 41.455L32.3487 41.2638C33.1998 40.8383 34.1384 40.6167 35.09 40.6167C36.4017 40.6167 37.6787 41.0374 38.7335 41.8171L40.9062 43.423L48.4171 50.5211L53.6775 55.4925C55.1683 56.9014 56.4257 58.5383 57.4027 60.342C57.8432 61.1552 58.0739 62.0654 58.0739 62.9903V63.2165C58.0739 64.5169 57.681 65.787 56.9466 66.8602L56.8429 67.0118C56.2412 67.8913 55.443 68.6185 54.5114 69.1361L54.1824 69.3189C53.3785 69.7655 52.474 69.9999 51.5544 69.9999C50.4265 69.9999 49.3268 69.6474 48.409 68.9919L47.5092 68.3491L44.2077 65.2127L37.1095 57.6193L32.7508 53.7319C31.5906 52.697 30.2905 51.8305 28.8889 51.1577L27.5318 50.5063C27.0952 50.2967 26.6371 50.135 26.1657 50.0241C24.8232 49.7082 23.4101 49.9394 22.2383 50.6668Z" fill="#DE3426"/>
<circle cx="25.3893" cy="60.5904" r="7.42833" fill="#DE3426"/>
<path d="M48.4404 19.3332L51.3972 17.498L40.4779 27.3407C39.9464 27.8198 39.3525 28.2249 38.7125 28.545L38.3301 28.7362C37.4789 29.1617 36.5404 29.3833 35.5887 29.3833C34.2771 29.3833 33 28.9626 31.9452 28.1829L29.7725 26.577L22.2617 19.4789L17.0013 14.5075C15.5104 13.0986 14.253 11.4617 13.276 9.65803C12.8355 8.84481 12.6048 7.93456 12.6048 7.0097V6.78354C12.6048 5.48311 12.9978 4.21302 13.7321 3.13977L13.8358 2.98822C14.4375 2.10875 15.2358 1.38146 16.1673 0.863949L16.4964 0.681133C17.3003 0.234518 18.2047 0.000146866 19.1244 0.000146866C20.2522 0.000146866 21.3519 0.352554 22.2697 1.00811L23.1696 1.65088L26.4711 4.78729L33.5692 12.3807L37.9279 16.2681C39.0882 17.303 40.3882 18.1695 41.7898 18.8423L43.147 19.4937C43.5836 19.7033 44.0416 19.865 44.513 19.9759C45.8556 20.2918 47.2686 20.0606 48.4404 19.3332Z" fill="#DE3426"/>
<circle cx="45.2895" cy="9.40956" r="7.42833" transform="rotate(180 45.2895 9.40956)" fill="#DE3426"/>
<path d="M51.667 48.7791L53.5022 51.7358L43.6595 40.8166C43.1804 40.285 42.7753 39.6912 42.4553 39.0511L42.2641 38.6687C41.8385 37.8175 41.6169 36.879 41.6169 35.9274C41.6169 34.6157 42.0376 33.3386 42.8173 32.2838L44.4232 30.1112L51.5213 22.6003L56.4927 17.3399C57.9016 15.8491 59.5385 14.5916 61.3422 13.6147C62.1554 13.1742 63.0657 12.9435 63.9905 12.9435H64.2167C65.5171 12.9435 66.7872 13.3364 67.8604 14.0707L68.012 14.1744C68.8915 14.7762 69.6188 15.5744 70.1363 16.5059L70.3191 16.835C70.7657 17.6389 71.0001 18.5434 71.0001 19.463C71.0001 20.5909 70.6477 21.6905 69.9921 22.6083L69.3493 23.5082L66.2129 26.8097L58.6195 33.9079L54.7321 38.2665C53.6972 39.4268 52.8307 40.7269 52.1579 42.1285L51.5065 43.4856C51.2969 43.9222 51.1352 44.3802 51.0243 44.8517C50.7084 46.1942 50.9397 47.6073 51.667 48.7791Z" fill="#ECB534"/>
<circle cx="61.5908" cy="45.6283" r="7.42833" transform="rotate(-90 61.5908 45.6283)" fill="#ECB534"/>
<path d="M19.8868 22.5774L18.0516 19.6206L27.8943 30.5399C28.3734 31.0714 28.7785 31.6653 29.0986 32.3054L29.2897 32.6877C29.7153 33.5389 29.9369 34.4775 29.9369 35.4291C29.9369 36.7407 29.5162 38.0178 28.7365 39.0726L27.1306 41.2453L20.0325 48.7561L15.0611 54.0166C13.6522 55.5074 12.0153 56.7648 10.2116 57.7418C9.3984 58.1823 8.48815 58.413 7.56329 58.413H7.33713C6.0367 58.413 4.76661 58.0201 3.69336 57.2857L3.54181 57.182C2.66234 56.5803 1.93505 55.782 1.41754 54.8505L1.23472 54.5215C0.788109 53.7176 0.553737 52.8131 0.553737 51.8934C0.553737 50.7656 0.906145 49.6659 1.5617 48.7481L2.20448 47.8482L5.34088 44.5468L12.9343 37.4486L16.8217 33.0899C17.8566 31.9296 18.7231 30.6296 19.3959 29.228L20.0473 27.8709C20.2569 27.4342 20.4186 26.9762 20.5295 26.5048C20.8454 25.1622 20.6141 23.7492 19.8868 22.5774Z" fill="#ECB534"/>
<circle cx="9.96297" cy="25.7281" r="7.42833" transform="rotate(90 9.96297 25.7281)" fill="#ECB534"/>
<path d="M91.8457 44.5V27H100.971C102.254 27 103.371 27.2333 104.321 27.7C105.271 28.1667 106.004 28.825 106.521 29.675C107.054 30.5083 107.321 31.4833 107.321 32.6C107.321 33.7 107.037 34.7 106.471 35.6C105.921 36.4833 105.162 37.175 104.196 37.675C103.246 38.175 102.179 38.425 100.996 38.425H95.8957V44.5H91.8457ZM103.321 44.5L98.0207 36.6L102.421 35.975L108.221 44.5H103.321ZM95.8957 35.175H100.546C101.029 35.175 101.454 35.075 101.821 34.875C102.204 34.675 102.504 34.4 102.721 34.05C102.954 33.6833 103.071 33.2667 103.071 32.8C103.071 32.3333 102.946 31.9333 102.696 31.6C102.462 31.2667 102.146 31.0083 101.746 30.825C101.346 30.6417 100.879 30.55 100.346 30.55H95.8957V35.175ZM120.305 44.75C118.622 44.75 117.147 44.4583 115.88 43.875C114.63 43.275 113.655 42.4583 112.955 41.425C112.272 40.3917 111.93 39.225 111.93 37.925C111.93 36.875 112.13 35.925 112.53 35.075C112.947 34.2083 113.513 33.475 114.23 32.875C114.947 32.2583 115.78 31.7833 116.73 31.45C117.697 31.1167 118.722 30.95 119.805 30.95C120.872 30.95 121.855 31.1167 122.755 31.45C123.672 31.7833 124.463 32.25 125.13 32.85C125.813 33.4333 126.33 34.1333 126.68 34.95C127.047 35.7667 127.213 36.6667 127.18 37.65L127.155 38.825H114.63L114.055 36.425H123.905L123.48 36.95V36.45C123.43 36 123.238 35.6083 122.905 35.275C122.572 34.9417 122.138 34.6833 121.605 34.5C121.088 34.3 120.505 34.2 119.855 34.2C119.055 34.2 118.338 34.325 117.705 34.575C117.072 34.825 116.572 35.2083 116.205 35.725C115.855 36.225 115.68 36.8583 115.68 37.625C115.68 38.3417 115.888 38.9833 116.305 39.55C116.722 40.1 117.322 40.5417 118.105 40.875C118.888 41.1917 119.805 41.35 120.855 41.35C121.822 41.35 122.622 41.2417 123.255 41.025C123.888 40.7917 124.422 40.525 124.855 40.225L126.63 42.825C126.063 43.2417 125.438 43.5917 124.755 43.875C124.072 44.1583 123.347 44.375 122.58 44.525C121.83 44.675 121.072 44.75 120.305 44.75ZM138.413 44.75C136.863 44.75 135.479 44.5417 134.263 44.125C133.046 43.7083 132.063 43.1 131.313 42.3L133.763 40.15C134.329 40.6833 135.029 41.1 135.862 41.4C136.713 41.6833 137.621 41.825 138.588 41.825C138.888 41.825 139.179 41.8083 139.463 41.775C139.746 41.7417 139.996 41.675 140.213 41.575C140.446 41.475 140.621 41.3583 140.738 41.225C140.871 41.075 140.938 40.9083 140.938 40.725C140.938 40.3917 140.713 40.1333 140.263 39.95C139.979 39.85 139.596 39.7583 139.113 39.675C138.629 39.575 138.113 39.475 137.563 39.375C136.579 39.1917 135.721 38.9917 134.988 38.775C134.254 38.5583 133.646 38.2667 133.163 37.9C132.713 37.55 132.363 37.15 132.113 36.7C131.879 36.25 131.763 35.7083 131.763 35.075C131.763 34.425 131.929 33.85 132.263 33.35C132.613 32.85 133.079 32.4167 133.663 32.05C134.263 31.6833 134.946 31.4083 135.713 31.225C136.479 31.0417 137.296 30.95 138.163 30.95C138.979 30.95 139.788 31.025 140.588 31.175C141.388 31.325 142.154 31.55 142.888 31.85C143.621 32.15 144.263 32.525 144.813 32.975L142.763 35.4C142.379 35.1167 141.921 34.8583 141.388 34.625C140.871 34.375 140.313 34.1833 139.713 34.05C139.129 33.9 138.546 33.825 137.963 33.825C137.646 33.825 137.354 33.8417 137.088 33.875C136.821 33.9083 136.571 33.9667 136.338 34.05C136.121 34.1333 135.946 34.2417 135.813 34.375C135.696 34.5083 135.638 34.6667 135.638 34.85C135.638 34.9833 135.679 35.1167 135.763 35.25C135.846 35.3667 135.971 35.475 136.138 35.575C136.388 35.725 136.763 35.8667 137.263 36C137.779 36.1167 138.388 36.2417 139.088 36.375C140.204 36.5583 141.154 36.7917 141.938 37.075C142.721 37.3583 143.338 37.6833 143.788 38.05C144.188 38.35 144.471 38.6917 144.638 39.075C144.804 39.4583 144.888 39.8917 144.888 40.375C144.888 41.2417 144.613 42.0083 144.063 42.675C143.513 43.325 142.746 43.8333 141.763 44.2C140.796 44.5667 139.679 44.75 138.413 44.75ZM155.673 44.75C154.123 44.75 152.74 44.5417 151.523 44.125C150.307 43.7083 149.323 43.1 148.573 42.3L151.023 40.15C151.59 40.6833 152.29 41.1 153.123 41.4C153.973 41.6833 154.882 41.825 155.848 41.825C156.148 41.825 156.44 41.8083 156.723 41.775C157.007 41.7417 157.257 41.675 157.473 41.575C157.707 41.475 157.882 41.3583 157.998 41.225C158.132 41.075 158.198 40.9083 158.198 40.725C158.198 40.3917 157.973 40.1333 157.523 39.95C157.24 39.85 156.857 39.7583 156.373 39.675C155.89 39.575 155.373 39.475 154.823 39.375C153.84 39.1917 152.982 38.9917 152.248 38.775C151.515 38.5583 150.907 38.2667 150.423 37.9C149.973 37.55 149.623 37.15 149.373 36.7C149.14 36.25 149.023 35.7083 149.023 35.075C149.023 34.425 149.19 33.85 149.523 33.35C149.873 32.85 150.34 32.4167 150.923 32.05C151.523 31.6833 152.207 31.4083 152.973 31.225C153.74 31.0417 154.557 30.95 155.423 30.95C156.24 30.95 157.048 31.025 157.848 31.175C158.648 31.325 159.415 31.55 160.148 31.85C160.882 32.15 161.523 32.525 162.073 32.975L160.023 35.4C159.64 35.1167 159.182 34.8583 158.648 34.625C158.132 34.375 157.573 34.1833 156.973 34.05C156.39 33.9 155.807 33.825 155.223 33.825C154.907 33.825 154.615 33.8417 154.348 33.875C154.082 33.9083 153.832 33.9667 153.598 34.05C153.382 34.1333 153.207 34.2417 153.073 34.375C152.957 34.5083 152.898 34.6667 152.898 34.85C152.898 34.9833 152.94 35.1167 153.023 35.25C153.107 35.3667 153.232 35.475 153.398 35.575C153.648 35.725 154.023 35.8667 154.523 36C155.04 36.1167 155.648 36.2417 156.348 36.375C157.465 36.5583 158.415 36.7917 159.198 37.075C159.982 37.3583 160.598 37.6833 161.048 38.05C161.448 38.35 161.732 38.6917 161.898 39.075C162.065 39.4583 162.148 39.8917 162.148 40.375C162.148 41.2417 161.873 42.0083 161.323 42.675C160.773 43.325 160.007 43.8333 159.023 44.2C158.057 44.5667 156.94 44.75 155.673 44.75ZM169.284 50.25L172.934 43.15L172.784 45.125L165.484 31.225H170.109L173.459 38.225C173.726 38.725 173.967 39.2417 174.184 39.775C174.417 40.2917 174.617 40.8 174.784 41.3L173.934 41.45C174.101 41.05 174.301 40.575 174.534 40.025C174.767 39.475 175.009 38.9167 175.259 38.35L178.409 31.225H183.009L176.159 44.575L173.359 50.25H169.284ZM188.24 44.5V31.225H192.04L192.19 34.475L191.19 34.75C191.407 34.0833 191.782 33.4667 192.315 32.9C192.865 32.3167 193.532 31.85 194.315 31.5C195.115 31.1333 195.99 30.95 196.94 30.95C198.14 30.95 199.14 31.1833 199.94 31.65C200.757 32.1167 201.373 32.775 201.79 33.625C202.223 34.4583 202.44 35.425 202.44 36.525V44.5H198.44V37.175C198.44 36.5917 198.315 36.0833 198.065 35.65C197.832 35.2167 197.49 34.8833 197.04 34.65C196.607 34.4167 196.098 34.3083 195.515 34.325C195.015 34.325 194.565 34.4167 194.165 34.6C193.765 34.7667 193.415 34.9917 193.115 35.275C192.832 35.5583 192.615 35.8667 192.465 36.2C192.332 36.5333 192.265 36.8667 192.265 37.2V44.5H190.265C189.682 44.5 189.223 44.5 188.89 44.5C188.557 44.5 188.34 44.5 188.24 44.5Z" fill="black"/>
</svg>
