<svg width="25" height="25" viewBox="0 0 25 25" fill="none" xmlns="http://www.w3.org/2000/svg">
<path d="M7.88972 17.8375L6.8824 18.4627L10.6024 15.1095C10.7835 14.9462 10.9858 14.8082 11.2039 14.6992L11.3342 14.6341C11.6241 14.4891 11.9439 14.4136 12.2681 14.4136C12.715 14.4136 13.15 14.5569 13.5094 14.8225L14.2496 15.3696L16.8084 17.7879L18.6006 19.4815C19.1085 19.9615 19.5368 20.5192 19.8697 21.1337C20.0198 21.4107 20.0983 21.7208 20.0983 22.0359V22.113C20.0983 22.556 19.9645 22.9887 19.7143 23.3543L19.679 23.406C19.474 23.7056 19.202 23.9534 18.8847 24.1297L18.7726 24.192C18.4987 24.3441 18.1906 24.424 17.8772 24.424C17.493 24.424 17.1184 24.3039 16.8057 24.0806L16.4991 23.8616L15.3743 22.7931L12.9561 20.2061L11.4712 18.8817C11.0759 18.5292 10.633 18.2339 10.1555 18.0047L9.69313 17.7828C9.54438 17.7114 9.38834 17.6563 9.22773 17.6185C8.77035 17.5109 8.28894 17.5897 7.88972 17.8375Z" fill="#ECB534"/>
<circle cx="8.96322" cy="21.2183" r="2.53071" fill="#ECB534"/>
<path d="M16.8164 7.16274L17.8238 6.53751L14.1037 9.89077C13.9226 10.054 13.7203 10.192 13.5023 10.301L13.372 10.3662C13.082 10.5112 12.7623 10.5866 12.4381 10.5866C11.9912 10.5866 11.5561 10.4433 11.1968 10.1777L10.4566 9.6306L7.89774 7.21236L6.1056 5.51869C5.5977 5.0387 5.16931 4.48103 4.83647 3.86656C4.6864 3.58951 4.60781 3.2794 4.60781 2.96431V2.88727C4.60781 2.44423 4.74167 2.01153 4.99185 1.64589L5.02717 1.59426C5.23218 1.29464 5.50412 1.04686 5.82148 0.870555L5.93359 0.808273C6.20747 0.656118 6.5156 0.576272 6.82891 0.576272C7.21315 0.576272 7.5878 0.696332 7.90047 0.919669L8.20705 1.13865L9.33181 2.20718L11.75 4.79413L13.235 6.11852C13.6303 6.47108 14.0732 6.76629 14.5507 6.9955L15.013 7.21743C15.1618 7.28882 15.3178 7.3439 15.4784 7.38169C15.9358 7.48931 16.4172 7.41053 16.8164 7.16274Z" fill="#ECB534"/>
<circle cx="15.7429" cy="3.78191" r="2.53071" transform="rotate(180 15.7429 3.78191)" fill="#ECB534"/>
<path d="M17.9158 17.1942L18.541 18.2015L15.1878 14.4815C15.0245 14.3004 14.8865 14.0981 14.7775 13.88L14.7123 13.7497C14.5674 13.4598 14.4919 13.14 14.4919 12.8158C14.4919 12.3689 14.6352 11.9339 14.9008 11.5745L15.4479 10.8343L17.8662 8.27549L19.5598 6.48335C20.0398 5.97545 20.5975 5.54706 21.212 5.21422C21.489 5.06415 21.7991 4.98556 22.1142 4.98556H22.1913C22.6343 4.98556 23.067 5.11942 23.4326 5.3696L23.4843 5.40492C23.7839 5.60993 24.0317 5.88187 24.208 6.19923L24.2702 6.31134C24.4224 6.58522 24.5023 6.89335 24.5023 7.20666C24.5023 7.5909 24.3822 7.96555 24.1589 8.27822L23.9399 8.5848L22.8713 9.70956L20.2844 12.1278L18.96 13.6127C18.6074 14.008 18.3122 14.4509 18.083 14.9284L17.8611 15.3908C17.7897 15.5395 17.7346 15.6956 17.6968 15.8562C17.5892 16.3136 17.668 16.795 17.9158 17.1942Z" fill="#DE3426"/>
<circle cx="21.2967" cy="16.1208" r="2.53071" transform="rotate(-90 21.2967 16.1208)" fill="#DE3426"/>
<path d="M7.08872 8.26788L6.46348 7.26056L9.81674 10.9806C9.97998 11.1617 10.118 11.364 10.227 11.5821L10.2922 11.7123C10.4371 12.0023 10.5126 12.3221 10.5126 12.6463C10.5126 13.0931 10.3693 13.5282 10.1037 13.8875L9.55658 14.6277L7.13834 17.1866L5.44467 18.9787C4.96468 19.4866 4.40701 19.915 3.79254 20.2478C3.51548 20.3979 3.20538 20.4765 2.89029 20.4765H2.81324C2.37021 20.4765 1.93751 20.3426 1.57187 20.0925L1.52024 20.0571C1.22062 19.8521 0.97284 19.5802 0.796531 19.2628L0.73425 19.1507C0.582095 18.8768 0.502248 18.5687 0.502248 18.2554C0.502248 17.8712 0.622308 17.4965 0.845646 17.1838L1.06463 16.8773L2.13315 15.7525L4.7201 13.3343L6.0445 11.8493C6.39705 11.4541 6.69227 11.0111 6.92147 10.5336L7.1434 10.0713C7.2148 9.92254 7.26988 9.7665 7.30767 9.60589C7.41529 9.14851 7.33651 8.6671 7.08872 8.26788Z" fill="#DE3426"/>
<circle cx="3.7078" cy="9.3413" r="2.53071" transform="rotate(90 3.7078 9.3413)" fill="#DE3426"/>
</svg>
