<svg width="65" height="15" viewBox="0 0 65 15" fill="none" xmlns="http://www.w3.org/2000/svg">
<path d="M0.268994 10.5762V0.0761712H5.66899C6.27899 0.0761712 6.83899 0.221171 7.34899 0.511172C7.85899 0.801172 8.26899 1.19617 8.579 1.69617C8.88899 2.18617 9.04399 2.74117 9.04399 3.36117C9.04399 3.96117 8.87899 4.51617 8.54899 5.02617C8.22899 5.52617 7.79899 5.92617 7.25899 6.22617C6.72899 6.52617 6.14399 6.67617 5.50399 6.67617H1.88899V10.5762H0.268994ZM7.57399 10.5762L4.39399 5.83617L6.08899 5.46117L9.56899 10.5912L7.57399 10.5762ZM1.88899 5.11617H5.48899C5.82899 5.11617 6.13899 5.03617 6.41899 4.87617C6.69899 4.71617 6.92399 4.50117 7.09399 4.23117C7.26399 3.96117 7.34899 3.66617 7.34899 3.34617C7.34899 3.01617 7.25399 2.72617 7.06399 2.47617C6.88399 2.21617 6.63899 2.01117 6.32899 1.86117C6.01899 1.71117 5.67399 1.63617 5.29399 1.63617H1.88899V5.11617ZM16.9871 10.7262C16.0471 10.7262 15.2121 10.5562 14.4821 10.2162C13.7521 9.86617 13.1821 9.39117 12.7721 8.79117C12.3621 8.18117 12.1571 7.49117 12.1571 6.72117C12.1571 6.08117 12.2771 5.50617 12.5171 4.99617C12.7571 4.47617 13.0921 4.03617 13.5221 3.67617C13.9521 3.30617 14.4521 3.02117 15.0221 2.82117C15.5921 2.62117 16.2021 2.52117 16.8521 2.52117C17.4421 2.52117 17.9971 2.61617 18.5171 2.80617C19.0371 2.99617 19.4921 3.26117 19.8821 3.60117C20.2721 3.94117 20.5721 4.34617 20.7821 4.81617C20.9921 5.27617 21.0921 5.78617 21.0821 6.34617L21.0671 7.09617H13.4621L13.1171 5.86617H19.7321L19.5071 6.03117V5.67117C19.4671 5.33117 19.3171 5.03117 19.0571 4.77117C18.7971 4.51117 18.4721 4.31117 18.0821 4.17117C17.7021 4.02117 17.2921 3.94617 16.8521 3.94617C16.2321 3.94617 15.6821 4.04117 15.2021 4.23117C14.7221 4.41117 14.3471 4.70117 14.0771 5.10117C13.8171 5.49117 13.6871 5.99617 13.6871 6.61617C13.6871 7.15617 13.8321 7.63117 14.1221 8.04117C14.4221 8.44117 14.8371 8.75117 15.3671 8.97117C15.9071 9.19117 16.5221 9.30117 17.2121 9.30117C17.8421 9.30117 18.3771 9.21617 18.8171 9.04617C19.2671 8.86617 19.6671 8.64617 20.0171 8.38617L20.7371 9.52617C20.4671 9.74617 20.1271 9.94617 19.7171 10.1262C19.3171 10.3062 18.8771 10.4512 18.3971 10.5612C17.9271 10.6712 17.4571 10.7262 16.9871 10.7262ZM27.7165 10.7262C26.9065 10.7262 26.1665 10.6112 25.4965 10.3812C24.8365 10.1512 24.2865 9.78117 23.8465 9.27117L24.8965 8.34117C25.2465 8.70117 25.6515 8.97617 26.1115 9.16617C26.5815 9.34617 27.1015 9.43617 27.6715 9.43617C27.8915 9.43617 28.1165 9.42117 28.3465 9.39117C28.5765 9.36117 28.7865 9.30617 28.9765 9.22617C29.1765 9.14617 29.3315 9.04117 29.4415 8.91117C29.5615 8.78117 29.6215 8.62617 29.6215 8.44617C29.6215 8.14617 29.4215 7.91617 29.0215 7.75617C28.8215 7.68617 28.5815 7.61617 28.3015 7.54617C28.0215 7.46617 27.7015 7.39117 27.3415 7.32117C26.7415 7.19117 26.2165 7.05117 25.7665 6.90117C25.3165 6.75117 24.9515 6.55617 24.6715 6.31617C24.4615 6.12617 24.3015 5.91117 24.1915 5.67117C24.0815 5.42117 24.0265 5.13617 24.0265 4.81617C24.0265 4.46617 24.1165 4.15617 24.2965 3.88617C24.4765 3.60617 24.7215 3.36617 25.0315 3.16617C25.3515 2.95617 25.7215 2.80117 26.1415 2.70117C26.5615 2.59117 27.0165 2.53617 27.5065 2.53617C27.9365 2.53617 28.3715 2.58117 28.8115 2.67117C29.2615 2.76117 29.6865 2.90117 30.0865 3.09117C30.4865 3.28117 30.8215 3.51617 31.0915 3.79617L30.2515 4.81617C30.0115 4.62617 29.7365 4.45617 29.4265 4.30617C29.1165 4.14617 28.7965 4.02617 28.4665 3.94617C28.1465 3.85617 27.8415 3.81117 27.5515 3.81117C27.3115 3.81117 27.0765 3.82617 26.8465 3.85617C26.6165 3.88617 26.4015 3.94117 26.2015 4.02117C26.0115 4.09117 25.8565 4.19117 25.7365 4.32117C25.6265 4.44117 25.5715 4.58617 25.5715 4.75617C25.5815 4.87617 25.6165 4.99117 25.6765 5.10117C25.7465 5.20117 25.8415 5.29117 25.9615 5.37117C26.1415 5.49117 26.3915 5.60117 26.7115 5.70117C27.0415 5.79117 27.4165 5.87617 27.8365 5.95617C28.3665 6.05617 28.8515 6.17617 29.2915 6.31617C29.7315 6.45617 30.0965 6.63117 30.3865 6.84117C30.6365 7.01117 30.8215 7.21617 30.9415 7.45617C31.0715 7.68617 31.1365 7.95617 31.1365 8.26617C31.1365 8.77617 30.9815 9.21617 30.6715 9.58617C30.3715 9.95617 29.9615 10.2412 29.4415 10.4412C28.9215 10.6312 28.3465 10.7262 27.7165 10.7262ZM37.5749 10.7262C36.7649 10.7262 36.0249 10.6112 35.3549 10.3812C34.6949 10.1512 34.1449 9.78117 33.7049 9.27117L34.7549 8.34117C35.1049 8.70117 35.5099 8.97617 35.9699 9.16617C36.4399 9.34617 36.9599 9.43617 37.5299 9.43617C37.7499 9.43617 37.9749 9.42117 38.2049 9.39117C38.4349 9.36117 38.6449 9.30617 38.8349 9.22617C39.0349 9.14617 39.1899 9.04117 39.2999 8.91117C39.4199 8.78117 39.4799 8.62617 39.4799 8.44617C39.4799 8.14617 39.2799 7.91617 38.8799 7.75617C38.6799 7.68617 38.4399 7.61617 38.1599 7.54617C37.8799 7.46617 37.5599 7.39117 37.1999 7.32117C36.5999 7.19117 36.0749 7.05117 35.6249 6.90117C35.1749 6.75117 34.8099 6.55617 34.5299 6.31617C34.3199 6.12617 34.1599 5.91117 34.0499 5.67117C33.9399 5.42117 33.8849 5.13617 33.8849 4.81617C33.8849 4.46617 33.9749 4.15617 34.1549 3.88617C34.3349 3.60617 34.5799 3.36617 34.8899 3.16617C35.2099 2.95617 35.5799 2.80117 35.9999 2.70117C36.4199 2.59117 36.8749 2.53617 37.3649 2.53617C37.7949 2.53617 38.2299 2.58117 38.6699 2.67117C39.1199 2.76117 39.5449 2.90117 39.9449 3.09117C40.3449 3.28117 40.6799 3.51617 40.9499 3.79617L40.1099 4.81617C39.8699 4.62617 39.5949 4.45617 39.2849 4.30617C38.9749 4.14617 38.6549 4.02617 38.3249 3.94617C38.0049 3.85617 37.6999 3.81117 37.4099 3.81117C37.1699 3.81117 36.9349 3.82617 36.7049 3.85617C36.4749 3.88617 36.2599 3.94117 36.0599 4.02117C35.8699 4.09117 35.7149 4.19117 35.5949 4.32117C35.4849 4.44117 35.4299 4.58617 35.4299 4.75617C35.4399 4.87617 35.4749 4.99117 35.5349 5.10117C35.6049 5.20117 35.6999 5.29117 35.8199 5.37117C35.9999 5.49117 36.2499 5.60117 36.5699 5.70117C36.8999 5.79117 37.2749 5.87617 37.6949 5.95617C38.2249 6.05617 38.7099 6.17617 39.1499 6.31617C39.5899 6.45617 39.9549 6.63117 40.2449 6.84117C40.4949 7.01117 40.6799 7.21617 40.7999 7.45617C40.9299 7.68617 40.9949 7.95617 40.9949 8.26617C40.9949 8.77617 40.8399 9.21617 40.5299 9.58617C40.2299 9.95617 39.8199 10.2412 39.2999 10.4412C38.7799 10.6312 38.2049 10.7262 37.5749 10.7262ZM45.8883 14.0262L47.7783 10.3662V11.5512L43.2483 2.70117H45.0483L47.4333 7.66617C47.6633 8.08617 47.8633 8.48617 48.0333 8.86617C48.2033 9.24617 48.3233 9.58617 48.3933 9.88617L48.1083 9.93117C48.2283 9.63117 48.3683 9.28617 48.5283 8.89617C48.6983 8.50617 48.8933 8.07617 49.1133 7.60617L51.2733 2.70117H53.0883L49.1733 10.6212L47.5383 14.0262H45.8883ZM56.376 10.5762V2.70117H57.921V4.65117L57.486 4.75617C57.656 4.38617 57.906 4.03617 58.236 3.70617C58.566 3.36617 58.961 3.08617 59.421 2.86617C59.881 2.64617 60.381 2.53617 60.921 2.53617C61.651 2.53617 62.256 2.67617 62.736 2.95617C63.226 3.22617 63.591 3.61117 63.831 4.11117C64.081 4.61117 64.206 5.19617 64.206 5.86617V10.5762H62.661V6.04617C62.661 5.60617 62.566 5.23117 62.376 4.92117C62.196 4.60117 61.941 4.36117 61.611 4.20117C61.291 4.03117 60.916 3.95117 60.486 3.96117C60.116 3.96117 59.771 4.02617 59.451 4.15617C59.141 4.28617 58.871 4.45617 58.641 4.66617C58.411 4.87617 58.231 5.11117 58.101 5.37117C57.981 5.62117 57.921 5.87617 57.921 6.13617V10.5762H57.156C56.956 10.5762 56.791 10.5762 56.661 10.5762C56.531 10.5762 56.436 10.5762 56.376 10.5762Z" fill="black"/>
</svg>
