<svg width="49" height="49" viewBox="0 0 49 49" fill="none" xmlns="http://www.w3.org/2000/svg">
<path d="M15.0612 35.1914L13.0076 36.4661L20.5917 29.6296C20.9609 29.2969 21.3734 29.0155 21.8179 28.7932L22.0835 28.6604C22.6747 28.3648 23.3266 28.2109 23.9876 28.2109C24.8986 28.2109 25.7856 28.5032 26.5182 29.0447L28.0273 30.1601L33.2441 35.0902L36.8978 38.5431C37.9332 39.5217 38.8066 40.6587 39.4852 41.9114C39.7911 42.4762 39.9513 43.1085 39.9513 43.7508V43.9079C39.9513 44.8111 39.6784 45.6933 39.1684 46.4387L39.0964 46.544C38.6784 47.1549 38.124 47.66 37.477 48.0195L37.2484 48.1464C36.6901 48.4566 36.0619 48.6194 35.4231 48.6194C34.6397 48.6194 33.8759 48.3746 33.2385 47.9193L32.6135 47.4729L30.3204 45.2944L25.3902 40.0203L22.3629 37.3203C21.557 36.6015 20.654 35.9996 19.6805 35.5323L18.7379 35.0799C18.4346 34.9343 18.1165 34.822 17.7891 34.745C16.8566 34.5256 15.8751 34.6862 15.0612 35.1914Z" fill="black"/>
<circle cx="17.2501" cy="42.0843" r="5.15945" fill="black"/>
<path d="M33.2603 13.4278L35.314 12.1531L27.7298 18.9895C27.3606 19.3223 26.9482 19.6036 26.5036 19.8259L26.238 19.9587C25.6468 20.2543 24.9949 20.4082 24.334 20.4082C23.4229 20.4082 22.5359 20.116 21.8033 19.5745L20.2942 18.4591L15.0775 13.5289L11.4238 10.076C10.3883 9.09742 9.51494 7.96049 8.83637 6.70774C8.53042 6.14291 8.37019 5.51068 8.37019 4.86831V4.71123C8.37019 3.80799 8.64309 2.92584 9.15314 2.18039L9.22516 2.07513C9.6431 1.46428 10.1975 0.959135 10.8445 0.599689L11.0731 0.472713C11.6315 0.16251 12.2597 -0.000276566 12.8984 -0.000276566C13.6818 -0.000276566 14.4456 0.244493 15.083 0.69982L15.7081 1.14627L18.0012 3.3247L22.9313 8.5988L25.9587 11.2989C26.7646 12.0177 27.6675 12.6195 28.641 13.0868L29.5836 13.5393C29.8869 13.6848 30.205 13.7971 30.5325 13.8742C31.4649 14.0936 32.4464 13.933 33.2603 13.4278Z" fill="black"/>
<circle cx="31.0718" cy="6.53587" r="5.15945" transform="rotate(180 31.0718 6.53587)" fill="black"/>
<path d="M35.5017 33.879L36.7764 35.9326L29.94 28.3485C29.6072 27.9793 29.3259 27.5668 29.1036 27.1222L28.9708 26.8567C28.6752 26.2655 28.5213 25.6136 28.5213 24.9526C28.5213 24.0416 28.8135 23.1546 29.355 22.422L30.4704 20.9129L35.4006 15.6961L38.8535 12.0424C39.8321 11.007 40.969 10.1336 42.2218 9.45502C42.7866 9.14907 43.4188 8.98884 44.0612 8.98884H44.2183C45.1215 8.98884 46.0037 9.26175 46.7491 9.77179L46.8544 9.84381C47.4652 10.2618 47.9704 10.8162 48.3298 11.4632L48.4568 11.6917C48.767 12.2501 48.9298 12.8783 48.9298 13.5171C48.9298 14.3004 48.685 15.0642 48.2297 15.7017L47.7832 16.3267L45.6048 18.6198L40.3307 23.5499L37.6306 26.5773C36.9118 27.3832 36.31 28.2862 35.8427 29.2597L35.3902 30.2023C35.2447 30.5055 35.1324 30.8237 35.0553 31.1511C34.8359 32.0836 34.9965 33.0651 35.5017 33.879Z" fill="black" fill-opacity="0.4"/>
<circle cx="42.3948" cy="31.6911" r="5.15945" transform="rotate(-90 42.3948 31.6911)" fill="black" fill-opacity="0.4"/>
<path d="M13.4282 15.6806L12.1535 13.627L18.9899 21.2111C19.3227 21.5803 19.6041 21.9928 19.8264 22.4373L19.9591 22.7029C20.2547 23.2941 20.4086 23.946 20.4086 24.607C20.4086 25.518 20.1164 26.405 19.5749 27.1376L18.4595 28.6467L13.5294 33.8634L10.0764 37.5171C9.09785 38.5526 7.96091 39.426 6.70817 40.1045C6.14334 40.4105 5.51111 40.5707 4.86873 40.5707H4.71165C3.80842 40.5707 2.92626 40.2978 2.18082 39.7878L2.07556 39.7158C1.46471 39.2978 0.959563 38.7434 0.600118 38.0964L0.473142 37.8678C0.162938 37.3095 0.000151897 36.6812 0.000151897 36.0425C0.000151897 35.2591 0.244922 34.4953 0.700248 33.8579L1.1467 33.2328L3.32513 30.9398L8.59923 26.0096L11.2993 22.9823C12.0181 22.1764 12.62 21.2734 13.0872 20.2999L13.5397 19.3573C13.6853 19.054 13.7975 18.7359 13.8746 18.4084C14.094 17.476 13.9334 16.4945 13.4282 15.6806Z" fill="black" fill-opacity="0.4"/>
<circle cx="6.53544" cy="17.8694" r="5.15945" transform="rotate(90 6.53544 17.8694)" fill="black" fill-opacity="0.4"/>
</svg>
