<svg width="101" height="25" viewBox="0 0 101 25" fill="none" xmlns="http://www.w3.org/2000/svg">
<path d="M7.88972 17.8375L6.8824 18.4627L10.6024 15.1095C10.7835 14.9462 10.9858 14.8082 11.2039 14.6992L11.3342 14.6341C11.6241 14.4891 11.9439 14.4136 12.2681 14.4136C12.715 14.4136 13.15 14.5569 13.5094 14.8225L14.2496 15.3696L16.8084 17.7879L18.6006 19.4815C19.1085 19.9615 19.5368 20.5192 19.8697 21.1337C20.0198 21.4107 20.0983 21.7208 20.0983 22.0359V22.113C20.0983 22.556 19.9645 22.9887 19.7143 23.3543L19.679 23.406C19.474 23.7056 19.202 23.9534 18.8847 24.1297L18.7726 24.192C18.4987 24.3441 18.1906 24.424 17.8772 24.424C17.493 24.424 17.1184 24.3039 16.8057 24.0806L16.4991 23.8616L15.3743 22.7931L12.9561 20.2061L11.4712 18.8817C11.0759 18.5292 10.633 18.2339 10.1555 18.0047L9.69313 17.7828C9.54438 17.7114 9.38834 17.6563 9.22773 17.6185C8.77035 17.5109 8.28894 17.5897 7.88972 17.8375Z" fill="#ECB534"/>
<circle cx="8.96322" cy="21.2183" r="2.53071" fill="#ECB534"/>
<path d="M16.8164 7.16274L17.8238 6.53751L14.1037 9.89077C13.9226 10.054 13.7203 10.192 13.5023 10.301L13.372 10.3662C13.082 10.5112 12.7623 10.5866 12.4381 10.5866C11.9912 10.5866 11.5561 10.4433 11.1968 10.1777L10.4566 9.6306L7.89774 7.21236L6.1056 5.51869C5.5977 5.0387 5.16931 4.48103 4.83647 3.86656C4.6864 3.58951 4.60781 3.2794 4.60781 2.96431V2.88727C4.60781 2.44423 4.74167 2.01153 4.99185 1.64589L5.02717 1.59426C5.23218 1.29464 5.50412 1.04686 5.82148 0.870555L5.93359 0.808273C6.20747 0.656118 6.5156 0.576272 6.82891 0.576272C7.21315 0.576272 7.5878 0.696332 7.90047 0.919669L8.20705 1.13865L9.33181 2.20718L11.75 4.79413L13.235 6.11852C13.6303 6.47108 14.0732 6.76629 14.5507 6.9955L15.013 7.21743C15.1618 7.28882 15.3178 7.3439 15.4784 7.38169C15.9358 7.48931 16.4172 7.41053 16.8164 7.16274Z" fill="#ECB534"/>
<circle cx="15.7429" cy="3.78191" r="2.53071" transform="rotate(180 15.7429 3.78191)" fill="#ECB534"/>
<path d="M17.9158 17.1942L18.541 18.2015L15.1878 14.4815C15.0245 14.3004 14.8865 14.0981 14.7775 13.88L14.7123 13.7497C14.5674 13.4598 14.4919 13.14 14.4919 12.8158C14.4919 12.3689 14.6352 11.9339 14.9008 11.5745L15.4479 10.8343L17.8662 8.27549L19.5598 6.48335C20.0398 5.97545 20.5975 5.54706 21.212 5.21422C21.489 5.06415 21.7991 4.98556 22.1142 4.98556H22.1913C22.6343 4.98556 23.067 5.11942 23.4326 5.3696L23.4843 5.40492C23.7839 5.60993 24.0317 5.88187 24.208 6.19923L24.2702 6.31134C24.4224 6.58522 24.5023 6.89335 24.5023 7.20666C24.5023 7.5909 24.3822 7.96555 24.1589 8.27822L23.9399 8.5848L22.8713 9.70956L20.2844 12.1278L18.96 13.6127C18.6074 14.008 18.3122 14.4509 18.083 14.9284L17.8611 15.3908C17.7897 15.5395 17.7346 15.6956 17.6968 15.8562C17.5892 16.3136 17.668 16.795 17.9158 17.1942Z" fill="#DE3426"/>
<circle cx="21.2967" cy="16.1208" r="2.53071" transform="rotate(-90 21.2967 16.1208)" fill="#DE3426"/>
<path d="M7.08872 8.26788L6.46348 7.26056L9.81674 10.9806C9.97998 11.1617 10.118 11.364 10.227 11.5821L10.2922 11.7123C10.4371 12.0023 10.5126 12.3221 10.5126 12.6463C10.5126 13.0931 10.3693 13.5282 10.1037 13.8875L9.55658 14.6277L7.13834 17.1866L5.44467 18.9787C4.96468 19.4866 4.40701 19.915 3.79254 20.2478C3.51548 20.3979 3.20538 20.4765 2.89029 20.4765H2.81324C2.37021 20.4765 1.93751 20.3426 1.57187 20.0925L1.52024 20.0571C1.22062 19.8521 0.97284 19.5802 0.796531 19.2628L0.73425 19.1507C0.582095 18.8768 0.502248 18.5687 0.502248 18.2554C0.502248 17.8712 0.622308 17.4965 0.845646 17.1838L1.06463 16.8773L2.13315 15.7525L4.7201 13.3343L6.0445 11.8493C6.39705 11.4541 6.69227 11.0111 6.92147 10.5336L7.1434 10.0713C7.2148 9.92254 7.26988 9.7665 7.30767 9.60589C7.41529 9.14851 7.33651 8.6671 7.08872 8.26788Z" fill="#DE3426"/>
<circle cx="3.7078" cy="9.3413" r="2.53071" transform="rotate(90 3.7078 9.3413)" fill="#DE3426"/>
<path d="M34.269 16.5762V6.07617H39.669C40.279 6.07617 40.839 6.22117 41.349 6.51117C41.859 6.80117 42.269 7.19617 42.579 7.69617C42.889 8.18617 43.044 8.74117 43.044 9.36117C43.044 9.96117 42.879 10.5162 42.549 11.0262C42.229 11.5262 41.799 11.9262 41.259 12.2262C40.729 12.5262 40.144 12.6762 39.504 12.6762H35.889V16.5762H34.269ZM41.574 16.5762L38.394 11.8362L40.089 11.4612L43.569 16.5912L41.574 16.5762ZM35.889 11.1162H39.489C39.829 11.1162 40.139 11.0362 40.419 10.8762C40.699 10.7162 40.924 10.5012 41.094 10.2312C41.264 9.96117 41.349 9.66617 41.349 9.34617C41.349 9.01617 41.254 8.72617 41.064 8.47617C40.884 8.21617 40.639 8.01117 40.329 7.86117C40.019 7.71117 39.674 7.63617 39.294 7.63617H35.889V11.1162ZM50.9871 16.7262C50.0471 16.7262 49.2121 16.5562 48.4821 16.2162C47.7521 15.8662 47.1821 15.3912 46.7721 14.7912C46.3621 14.1812 46.1571 13.4912 46.1571 12.7212C46.1571 12.0812 46.2771 11.5062 46.5171 10.9962C46.7571 10.4762 47.0921 10.0362 47.5221 9.67617C47.9521 9.30617 48.4521 9.02117 49.0221 8.82117C49.5921 8.62117 50.2021 8.52117 50.8521 8.52117C51.4421 8.52117 51.9971 8.61617 52.5171 8.80617C53.0371 8.99617 53.4921 9.26117 53.8821 9.60117C54.2721 9.94117 54.5721 10.3462 54.7821 10.8162C54.9921 11.2762 55.0921 11.7862 55.0821 12.3462L55.0671 13.0962H47.4621L47.1171 11.8662H53.7321L53.5071 12.0312V11.6712C53.4671 11.3312 53.3171 11.0312 53.0571 10.7712C52.7971 10.5112 52.4721 10.3112 52.0821 10.1712C51.7021 10.0212 51.2921 9.94617 50.8521 9.94617C50.2321 9.94617 49.6821 10.0412 49.2021 10.2312C48.7221 10.4112 48.3471 10.7012 48.0771 11.1012C47.8171 11.4912 47.6871 11.9962 47.6871 12.6162C47.6871 13.1562 47.8321 13.6312 48.1221 14.0412C48.4221 14.4412 48.8371 14.7512 49.3671 14.9712C49.9071 15.1912 50.5221 15.3012 51.2121 15.3012C51.8421 15.3012 52.3771 15.2162 52.8171 15.0462C53.2671 14.8662 53.6671 14.6462 54.0171 14.3862L54.7371 15.5262C54.4671 15.7462 54.1271 15.9462 53.7171 16.1262C53.3171 16.3062 52.8771 16.4512 52.3971 16.5612C51.9271 16.6712 51.4571 16.7262 50.9871 16.7262ZM61.7165 16.7262C60.9065 16.7262 60.1665 16.6112 59.4965 16.3812C58.8365 16.1512 58.2865 15.7812 57.8465 15.2712L58.8965 14.3412C59.2465 14.7012 59.6515 14.9762 60.1115 15.1662C60.5815 15.3462 61.1015 15.4362 61.6715 15.4362C61.8915 15.4362 62.1165 15.4212 62.3465 15.3912C62.5765 15.3612 62.7865 15.3062 62.9765 15.2262C63.1765 15.1462 63.3315 15.0412 63.4415 14.9112C63.5615 14.7812 63.6215 14.6262 63.6215 14.4462C63.6215 14.1462 63.4215 13.9162 63.0215 13.7562C62.8215 13.6862 62.5815 13.6162 62.3015 13.5462C62.0215 13.4662 61.7015 13.3912 61.3415 13.3212C60.7415 13.1912 60.2165 13.0512 59.7665 12.9012C59.3165 12.7512 58.9515 12.5562 58.6715 12.3162C58.4615 12.1262 58.3015 11.9112 58.1915 11.6712C58.0815 11.4212 58.0265 11.1362 58.0265 10.8162C58.0265 10.4662 58.1165 10.1562 58.2965 9.88617C58.4765 9.60617 58.7215 9.36617 59.0315 9.16617C59.3515 8.95617 59.7215 8.80117 60.1415 8.70117C60.5615 8.59117 61.0165 8.53617 61.5065 8.53617C61.9365 8.53617 62.3715 8.58117 62.8115 8.67117C63.2615 8.76117 63.6865 8.90117 64.0865 9.09117C64.4865 9.28117 64.8215 9.51617 65.0915 9.79617L64.2515 10.8162C64.0115 10.6262 63.7365 10.4562 63.4265 10.3062C63.1165 10.1462 62.7965 10.0262 62.4665 9.94617C62.1465 9.85617 61.8415 9.81117 61.5515 9.81117C61.3115 9.81117 61.0765 9.82617 60.8465 9.85617C60.6165 9.88617 60.4015 9.94117 60.2015 10.0212C60.0115 10.0912 59.8565 10.1912 59.7365 10.3212C59.6265 10.4412 59.5715 10.5862 59.5715 10.7562C59.5815 10.8762 59.6165 10.9912 59.6765 11.1012C59.7465 11.2012 59.8415 11.2912 59.9615 11.3712C60.1415 11.4912 60.3915 11.6012 60.7115 11.7012C61.0415 11.7912 61.4165 11.8762 61.8365 11.9562C62.3665 12.0562 62.8515 12.1762 63.2915 12.3162C63.7315 12.4562 64.0965 12.6312 64.3865 12.8412C64.6365 13.0112 64.8215 13.2162 64.9415 13.4562C65.0715 13.6862 65.1365 13.9562 65.1365 14.2662C65.1365 14.7762 64.9815 15.2162 64.6715 15.5862C64.3715 15.9562 63.9615 16.2412 63.4415 16.4412C62.9215 16.6312 62.3465 16.7262 61.7165 16.7262ZM71.5749 16.7262C70.7649 16.7262 70.0249 16.6112 69.3549 16.3812C68.6949 16.1512 68.1449 15.7812 67.7049 15.2712L68.7549 14.3412C69.1049 14.7012 69.5099 14.9762 69.9699 15.1662C70.4399 15.3462 70.9599 15.4362 71.5299 15.4362C71.7499 15.4362 71.9749 15.4212 72.2049 15.3912C72.4349 15.3612 72.6449 15.3062 72.8349 15.2262C73.0349 15.1462 73.1899 15.0412 73.2999 14.9112C73.4199 14.7812 73.4799 14.6262 73.4799 14.4462C73.4799 14.1462 73.2799 13.9162 72.8799 13.7562C72.6799 13.6862 72.4399 13.6162 72.1599 13.5462C71.8799 13.4662 71.5599 13.3912 71.1999 13.3212C70.5999 13.1912 70.0749 13.0512 69.6249 12.9012C69.1749 12.7512 68.8099 12.5562 68.5299 12.3162C68.3199 12.1262 68.1599 11.9112 68.0499 11.6712C67.9399 11.4212 67.8849 11.1362 67.8849 10.8162C67.8849 10.4662 67.9749 10.1562 68.1549 9.88617C68.3349 9.60617 68.5799 9.36617 68.8899 9.16617C69.2099 8.95617 69.5799 8.80117 69.9999 8.70117C70.4199 8.59117 70.8749 8.53617 71.3649 8.53617C71.7949 8.53617 72.2299 8.58117 72.6699 8.67117C73.1199 8.76117 73.5449 8.90117 73.9449 9.09117C74.3449 9.28117 74.6799 9.51617 74.9499 9.79617L74.1099 10.8162C73.8699 10.6262 73.5949 10.4562 73.2849 10.3062C72.9749 10.1462 72.6549 10.0262 72.3249 9.94617C72.0049 9.85617 71.6999 9.81117 71.4099 9.81117C71.1699 9.81117 70.9349 9.82617 70.7049 9.85617C70.4749 9.88617 70.2599 9.94117 70.0599 10.0212C69.8699 10.0912 69.7149 10.1912 69.5949 10.3212C69.4849 10.4412 69.4299 10.5862 69.4299 10.7562C69.4399 10.8762 69.4749 10.9912 69.5349 11.1012C69.6049 11.2012 69.6999 11.2912 69.8199 11.3712C69.9999 11.4912 70.2499 11.6012 70.5699 11.7012C70.8999 11.7912 71.2749 11.8762 71.6949 11.9562C72.2249 12.0562 72.7099 12.1762 73.1499 12.3162C73.5899 12.4562 73.9549 12.6312 74.2449 12.8412C74.4949 13.0112 74.6799 13.2162 74.7999 13.4562C74.9299 13.6862 74.9949 13.9562 74.9949 14.2662C74.9949 14.7762 74.8399 15.2162 74.5299 15.5862C74.2299 15.9562 73.8199 16.2412 73.2999 16.4412C72.7799 16.6312 72.2049 16.7262 71.5749 16.7262ZM79.8883 20.0262L81.7783 16.3662V17.5512L77.2483 8.70117H79.0483L81.4333 13.6662C81.6633 14.0862 81.8633 14.4862 82.0333 14.8662C82.2033 15.2462 82.3233 15.5862 82.3933 15.8862L82.1083 15.9312C82.2283 15.6312 82.3683 15.2862 82.5283 14.8962C82.6983 14.5062 82.8933 14.0762 83.1133 13.6062L85.2733 8.70117H87.0883L83.1733 16.6212L81.5383 20.0262H79.8883ZM90.376 16.5762V8.70117H91.921V10.6512L91.486 10.7562C91.656 10.3862 91.906 10.0362 92.236 9.70617C92.566 9.36617 92.961 9.08617 93.421 8.86617C93.881 8.64617 94.381 8.53617 94.921 8.53617C95.651 8.53617 96.256 8.67617 96.736 8.95617C97.226 9.22617 97.591 9.61117 97.831 10.1112C98.081 10.6112 98.206 11.1962 98.206 11.8662V16.5762H96.661V12.0462C96.661 11.6062 96.566 11.2312 96.376 10.9212C96.196 10.6012 95.941 10.3612 95.611 10.2012C95.291 10.0312 94.916 9.95117 94.486 9.96117C94.116 9.96117 93.771 10.0262 93.451 10.1562C93.141 10.2862 92.871 10.4562 92.641 10.6662C92.411 10.8762 92.231 11.1112 92.101 11.3712C91.981 11.6212 91.921 11.8762 91.921 12.1362V16.5762H91.156C90.956 16.5762 90.791 16.5762 90.661 16.5762C90.531 16.5762 90.436 16.5762 90.376 16.5762Z" fill="black"/>
</svg>
